<svg xmlns="http://www.w3.org/2000/svg" width="23.715" height="23.498" viewBox="0 0 23.715 23.498"><g transform="translate(-87 -241.072)"><g transform="translate(87 241.072)" fill="none" stroke="#313131" stroke-width="1"><ellipse cx="11.858" cy="11.749" rx="11.858" ry="11.749" stroke="none"/><ellipse cx="11.858" cy="11.749" rx="11.358" ry="11.249" fill="none"/></g><g transform="translate(92.425 247.786)"><path d="M6.425,5.406c.125-.6.828-3.335,2.882-3.335A2.463,2.463,0,0,1,11.78,4.75c0,2.092-1.942,4.535-5.354,6.762C3.013,9.285,1.071,6.842,1.071,4.75A2.442,2.442,0,0,1,3.522,2.07C5.622,2.07,6.277,4.815,6.425,5.406ZM0,4.75c0,2.178,1.638,5.077,6.425,8.03,4.787-2.954,6.425-5.852,6.425-8.03,0-4.263-5.166-4.834-6.425-2C5.173-.069,0,.462,0,4.75Z" transform="translate(0 -1)"/></g></g></svg>